<?xml version="1.0" encoding="utf-8"?>
<!-- Generator: Adobe Illustrator 23.0.1, SVG Export Plug-In . SVG Version: 6.00 Build 0)  -->
<svg version="1.1" id="Camada_1" xmlns="http://www.w3.org/2000/svg" xmlns:xlink="http://www.w3.org/1999/xlink" x="0px" y="0px"
	 viewBox="0 0 50 50" style="enable-background:new 0 0 50 50;" xml:space="preserve">
<style type="text/css">
	.st0{fill:#FFFFFF;}
</style>
<path class="st0" d="M23.18,3.13C10.61,1.58,0.34,13.71,5.25,26.64c1.58,4.16,4.91,7.48,9.06,9.08c5.88,2.26,11.46,1.37,15.78-1.37
	L40.25,44.5c1.17,1.17,3.07,1.17,4.25,0l0,0c1.17-1.17,1.17-3.08,0-4.25l-10-9.97c2.56-3.36,3.94-7.67,3.37-12.36
	C36.96,10.28,30.82,4.08,23.18,3.13z M20.16,7.03c7.86-0.49,14.3,5.95,13.81,13.81c-0.4,6.45-5.68,11.74-12.14,12.14
	c-7.86,0.49-14.3-5.95-13.81-13.81C8.43,12.71,13.71,7.43,20.16,7.03z"/>
</svg>
